<svg width="43" height="22" viewBox="0 0 43 22" fill="none" xmlns="http://www.w3.org/2000/svg">
<path d="M40.2055 4.20666C36.6267 0.53011 30.7078 -0.230531 26.1654 2.34725C25.2018 2.89663 24.2842 3.65727 23.4583 4.58698L21.8983 6.36189L17.9065 10.9681L15.4747 13.7149C15.1077 14.1375 14.6947 14.4756 14.3276 14.6869C12.3547 15.7856 9.83112 15.4476 8.2711 13.884C6.66522 12.2359 6.66522 9.70035 8.2711 8.05223C9.18874 7.12253 10.4735 6.61541 11.8041 6.61541C12.6759 6.61541 13.5476 6.86897 14.3276 7.24933C14.7406 7.46058 15.1077 7.79867 15.4747 8.22126L15.5513 8.30777C15.8578 8.65394 16.398 8.65395 16.7045 8.30777L19.6998 4.92438C19.9621 4.62812 19.959 4.17917 19.6747 3.90398C19.031 3.2809 18.3447 2.75409 17.6312 2.34725C13.0888 -0.230531 7.16993 0.53011 3.59109 4.20666C-0.125416 8.05223 -0.125416 14.0108 3.59109 17.8141C5.74757 20.0538 8.77581 21.1948 11.8041 21.1948C13.8229 21.1948 15.7959 20.6877 17.6312 19.6312C18.5947 19.0818 19.5124 18.3212 20.3383 17.3915L21.8983 15.6166L25.936 11.0104L28.3678 8.26352C28.7348 7.84094 29.1477 7.50285 29.5148 7.29156C31.4878 6.19282 34.0113 6.53092 35.5713 8.0945C37.1773 9.74258 37.1773 12.2781 35.5713 13.9262C34.0114 15.4898 31.4878 15.8279 29.5148 14.7291C29.1019 14.5179 28.7348 14.1798 28.3678 13.7572L28.2666 13.643C27.9602 13.2968 27.4199 13.2968 27.1134 13.643L24.0746 17.0756C23.8127 17.3713 23.8152 17.8193 24.0983 18.0947C24.7488 18.7275 25.4433 19.2617 26.1654 19.6735C30.7078 22.2513 36.6267 21.4906 40.2055 17.8141C43.922 13.9685 43.922 8.00997 40.2055 4.20666Z" fill="white"/>
</svg>
