<svg width="41" height="40" viewBox="0 0 41 40" fill="none" xmlns="http://www.w3.org/2000/svg">
<g clip-path="url(#clip0_3990_3018)">
<path d="M20.0381 16.4288C19.5699 16.4288 19.1063 16.521 18.6738 16.7001C18.2413 16.8793 17.8483 17.1419 17.5173 17.4729C17.1862 17.804 16.9236 18.197 16.7445 18.6295C16.5653 19.062 16.4731 19.5256 16.4731 19.9938C16.4731 20.4619 16.5653 20.9255 16.7445 21.358C16.9236 21.7906 17.1862 22.1836 17.5173 22.5146C17.8483 22.8456 18.2413 23.1082 18.6738 23.2874C19.1063 23.4665 19.5699 23.5588 20.0381 23.5588C20.5062 23.5588 20.9698 23.4665 21.4024 23.2874C21.8349 23.1082 22.2279 22.8456 22.5589 22.5146C22.89 22.1836 23.1526 21.7906 23.3317 21.358C23.5109 20.9255 23.6031 20.4619 23.6031 19.9938C23.6031 19.5256 23.5109 19.062 23.3317 18.6295C23.1526 18.197 22.89 17.804 22.5589 17.4729C22.2279 17.1419 21.8349 16.8793 21.4024 16.7001C20.9698 16.521 20.5062 16.4288 20.0381 16.4288ZM10.0514 27.0854L9.26475 26.8854C3.40142 25.4038 0.0380859 22.8888 0.0380859 19.9871C0.0380859 17.0854 3.40142 14.5704 9.26475 13.0888L10.0514 12.8904L10.2731 13.6704C10.8671 15.7166 11.6268 17.711 12.5448 19.6338L12.7131 19.9888L12.5448 20.3438C11.6253 22.2659 10.8655 24.2604 10.2731 26.3071L10.0514 27.0854ZM8.89975 14.9104C4.44309 16.1621 1.70809 18.0771 1.70809 19.9871C1.70809 21.8954 4.44309 23.8104 8.89975 25.0638C9.44479 23.3303 10.1029 21.6345 10.8698 19.9871C10.102 18.3401 9.44389 16.6442 8.89975 14.9104ZM30.0248 27.0854L29.8031 26.3038C29.2097 24.2577 28.4494 22.2638 27.5298 20.3421L27.3614 19.9871L27.5298 19.6321C28.449 17.7097 29.2094 15.7153 29.8031 13.6688L30.0248 12.8888L30.8131 13.0871C36.6748 14.5688 40.0381 17.0838 40.0381 19.9871C40.0381 22.8904 36.6748 25.4038 30.8131 26.8854L30.0248 27.0854ZM29.2064 19.9871C30.0064 21.7188 30.6681 23.4204 31.1764 25.0638C35.6348 23.8104 38.3681 21.8954 38.3681 19.9871C38.3681 18.0771 35.6331 16.1638 31.1764 14.9104C30.6321 16.6441 29.974 18.34 29.2064 19.9871ZM8.88809 14.9021L8.66642 14.1238C7.01809 8.31376 7.51809 4.15043 10.0381 2.69709C12.5098 1.27043 16.4781 2.95543 20.6364 7.22376L21.2031 7.80543L20.6364 8.38709C19.1588 9.9231 17.8088 11.5769 16.5998 13.3321L16.3748 13.6538L15.9831 13.6871C13.8563 13.8548 11.7466 14.1948 9.67475 14.7038L8.88809 14.9021ZM12.0481 3.85209C11.6014 3.85209 11.2064 3.94876 10.8731 4.14043C9.21642 5.09543 8.92309 8.41543 10.0648 12.8954C11.8408 12.5003 13.6407 12.2214 15.4531 12.0604C16.4988 10.5736 17.6413 9.15717 18.8731 7.82043C16.2731 5.28876 13.8114 3.85209 12.0481 3.85209ZM28.0298 37.7888C28.0281 37.7888 28.0281 37.7888 28.0298 37.7888C25.6548 37.7888 22.6048 36.0004 19.4398 32.7504L18.8731 32.1688L19.4398 31.5871C20.9169 30.0506 22.2664 28.3962 23.4748 26.6404L23.6998 26.3188L24.0898 26.2854C26.2177 26.1187 28.3285 25.7792 30.4014 25.2704L31.1881 25.0721L31.4114 25.8521C33.0564 31.6588 32.5581 35.8238 30.0381 37.2754C29.426 37.6215 28.7329 37.7987 28.0298 37.7888ZM21.2031 32.1538C23.8031 34.6854 26.2648 36.1221 28.0281 36.1221C28.4731 36.1221 28.8714 36.0254 29.2031 35.8338C30.8598 34.8788 31.1548 31.5571 30.0114 27.0771C28.2349 27.4728 26.4344 27.7517 24.6214 27.9121C23.577 29.4 22.435 30.817 21.2031 32.1538ZM31.1881 14.9021L30.4014 14.7038C28.3288 14.1933 26.2178 13.8533 24.0898 13.6871L23.6998 13.6538L23.4748 13.3321C22.267 11.5764 20.9175 9.92249 19.4398 8.38709L18.8731 7.80543L19.4398 7.22376C23.5964 2.95709 27.5631 1.27209 30.0381 2.69709C32.5581 4.15043 33.0581 8.31376 31.4114 14.1221L31.1881 14.9021ZM24.6214 12.0604C26.5248 12.2338 28.3331 12.5154 30.0114 12.8954C31.1548 8.41543 30.8598 5.09543 29.2031 4.14043C27.5564 3.18876 24.4614 4.64709 21.2031 7.82043C22.4343 9.15723 23.5762 10.5736 24.6214 12.0604ZM12.0481 37.7888C11.3444 37.799 10.6507 37.6218 10.0381 37.2754C7.51809 35.8238 7.01809 31.6604 8.66642 25.8521L8.88642 25.0721L9.67309 25.2704C11.5981 25.7554 13.7214 26.0971 15.9814 26.2854L16.3731 26.3188L16.5964 26.6404C17.8057 28.396 19.1557 30.0503 20.6331 31.5871L21.1998 32.1688L20.6331 32.7504C17.4698 36.0004 14.4198 37.7888 12.0481 37.7888ZM10.0648 27.0771C8.92142 31.5571 9.21642 34.8788 10.8731 35.8338C12.5181 36.7721 15.6114 35.3254 18.8731 32.1538C17.6418 30.816 16.4993 29.3991 15.4531 27.9121C13.6407 27.7518 11.8407 27.4729 10.0648 27.0771ZM20.0381 28.1238C18.6664 28.1238 17.2564 28.0638 15.8448 27.9471L15.4531 27.9138L15.2281 27.5921C14.4296 26.4448 13.679 25.2649 12.9781 24.0554C12.2793 22.845 11.631 21.6062 11.0348 20.3421L10.8698 19.9871L11.0348 19.6321C11.6309 18.368 12.2792 17.1291 12.9781 15.9188C13.6681 14.7254 14.4264 13.5354 15.2281 12.3821L15.4531 12.0604L15.8448 12.0271C18.6359 11.7904 21.442 11.7904 24.2331 12.0271L24.6231 12.0604L24.8464 12.3821C26.445 14.6772 27.8483 17.1024 29.0414 19.6321L29.2098 19.9871L29.0414 20.3421C27.8511 22.8733 26.4478 25.2987 24.8464 27.5921L24.6231 27.9138L24.2331 27.9471C22.8214 28.0638 21.4098 28.1238 20.0381 28.1238ZM16.3764 26.3171C18.8431 26.5021 21.2331 26.5021 23.7014 26.3171C25.0795 24.3025 26.303 22.1865 27.3614 19.9871C26.3048 17.7864 25.0807 15.6702 23.6998 13.6571C21.2621 13.4721 18.814 13.4721 16.3764 13.6571C14.9949 15.6698 13.7707 17.7861 12.7148 19.9871C13.7743 22.1862 14.9984 24.3022 16.3764 26.3171Z" fill="white"/>
</g>
<defs>
<clipPath id="clip0_3990_3018">
<rect width="40" height="40" fill="white" transform="translate(0.0380859 -0.00634766)"/>
</clipPath>
</defs>
</svg>
