<svg width="66" height="41" viewBox="0 0 66 41" fill="none" xmlns="http://www.w3.org/2000/svg">
<g clip-path="url(#clip0_3990_2963)">
<mask id="mask0_3990_2963" style="mask-type:luminance" maskUnits="userSpaceOnUse" x="0" y="0" width="66" height="40">
<path d="M0.19043 0.5H65.645V39.7727H0.19043V0.5Z" fill="white"/>
</mask>
<g mask="url(#mask0_3990_2963)">
<path fill-rule="evenodd" clip-rule="evenodd" d="M32.9177 0.5C24.1904 0.5 18.7359 4.86364 16.5541 13.5909C19.8268 9.22727 23.645 7.59091 28.0086 8.68182C30.4983 9.30364 32.2777 11.1109 34.2474 13.1097C37.4559 16.3667 41.1698 20.1364 49.2813 20.1364C58.0086 20.1364 63.4632 15.7727 65.645 7.04545C62.3722 11.4091 58.5541 13.0455 54.1904 11.9545C51.7007 11.3327 49.9213 9.52545 47.9516 7.52667C44.7432 4.2697 41.0292 0.5 32.9177 0.5ZM16.5541 20.1364C7.82679 20.1364 2.37225 24.5 0.19043 33.2273C3.46316 28.8636 7.28134 27.2273 11.645 28.3182C14.1347 28.9412 15.9141 30.7473 17.8838 32.7461C21.0922 36.003 24.8062 39.7727 32.9177 39.7727C41.645 39.7727 47.0995 35.4091 49.2813 26.6818C46.0086 31.0455 42.1904 32.6818 37.8268 31.5909C35.3371 30.9691 33.5577 29.1618 31.588 27.163C28.3795 23.9061 24.6656 20.1364 16.5541 20.1364Z" fill="white"/>
</g>
</g>
<defs>
<clipPath id="clip0_3990_2963">
<rect width="65.4545" height="40" fill="white" transform="translate(0.19043 0.5)"/>
</clipPath>
</defs>
</svg>
