<svg width="43" height="40" viewBox="0 0 43 40" fill="none" xmlns="http://www.w3.org/2000/svg">
<g clip-path="url(#clip0_3990_3017)">
<path fill-rule="evenodd" clip-rule="evenodd" d="M2.01705 -0.00634766H39.4375C40.2754 -0.00634766 40.9546 0.665225 40.9546 1.49365V38.4937C40.9546 39.3221 40.2754 39.9937 39.4375 39.9937H2.01705C1.1792 39.9937 0.5 39.3221 0.5 38.4937V1.49365C0.5 0.665225 1.1792 -0.00634766 2.01705 -0.00634766ZM22.9885 21.2743V17.9937H8.59091V21.2743H13.7311V35.8813H17.8231V21.2743H22.9885ZM24.6198 35.4957C25.2797 35.8283 26.0602 36.0778 26.9611 36.2441C27.8622 36.4104 28.8117 36.4937 29.81 36.4937C30.7829 36.4937 31.7071 36.4021 32.5828 36.2192C33.4583 36.0363 34.226 35.7347 34.8858 35.3147C35.5457 34.8947 36.0682 34.346 36.4531 33.6681C36.838 32.9903 37.0305 32.1524 37.0305 31.1544C37.0305 30.4309 36.9205 29.7969 36.7005 29.2521C36.4806 28.7073 36.1634 28.2229 35.7488 27.7987C35.3343 27.3746 34.8372 26.9941 34.2577 26.6573C33.6782 26.3206 33.0248 26.0024 32.2972 25.703C31.7642 25.4867 31.2862 25.2767 30.8632 25.073C30.4402 24.8693 30.0806 24.6613 29.7846 24.4493C29.4885 24.2372 29.2602 24.0127 29.0994 23.7757C28.9386 23.5387 28.8583 23.2704 28.8583 22.971C28.8583 22.6966 28.9302 22.4492 29.074 22.2289C29.2178 22.0084 29.4208 21.8192 29.6831 21.6612C29.9454 21.5032 30.2668 21.3806 30.6475 21.2932C31.0282 21.206 31.4512 21.1623 31.9165 21.1623C32.2549 21.1623 32.6123 21.1872 32.9888 21.237C33.3652 21.287 33.7438 21.364 34.1245 21.4678C34.5052 21.5718 34.8754 21.7027 35.2349 21.8609C35.5945 22.0189 35.9265 22.2018 36.2311 22.4097V18.6798C35.6134 18.4469 34.9388 18.2743 34.2069 18.1621C33.4752 18.0498 32.6355 17.9937 31.688 17.9937C30.7237 17.9937 29.81 18.0955 28.9471 18.2993C28.0842 18.503 27.3249 18.8212 26.6692 19.2537C26.0135 19.6861 25.4954 20.237 25.1148 20.9064C24.734 21.576 24.5437 22.3764 24.5437 23.3078C24.5437 24.4972 24.8926 25.5118 25.5906 26.3517C26.2886 27.1917 27.3482 27.9027 28.7694 28.4849C29.3278 28.7095 29.848 28.9298 30.3303 29.1461C30.8125 29.3623 31.2291 29.5869 31.5802 29.8197C31.9312 30.0526 32.2083 30.3061 32.4114 30.5806C32.6145 30.855 32.716 31.1669 32.716 31.5163C32.716 31.7741 32.6525 32.0132 32.5255 32.2335C32.3986 32.454 32.2062 32.6452 31.9482 32.8073C31.6902 32.9695 31.3688 33.0964 30.9838 33.1878C30.5989 33.2793 30.1483 33.325 29.6323 33.325C28.7525 33.325 27.8811 33.1733 27.0182 32.8698C26.1554 32.5663 25.3558 32.1109 24.6198 31.5038V35.4957Z" fill="white"/>
</g>
<defs>
<clipPath id="clip0_3990_3017">
<rect width="41.5385" height="40" fill="white" transform="translate(0.5 -0.00634766)"/>
</clipPath>
</defs>
</svg>
