<svg width="41" height="41" viewBox="0 0 41 41" fill="none" xmlns="http://www.w3.org/2000/svg">
<path fill-rule="evenodd" clip-rule="evenodd" d="M1.79785 5.65527L14.5661 26.9537L27.3338 5.65527H1.79785Z" fill="white"/>
<path fill-rule="evenodd" clip-rule="evenodd" d="M27.7304 5.87012L21.5439 16.1894H33.9169L27.7304 5.87012Z" fill="white"/>
<path fill-rule="evenodd" clip-rule="evenodd" d="M21.5439 16.6338L27.7304 26.9531L33.9169 16.6338H21.5439Z" fill="white"/>
<path fill-rule="evenodd" clip-rule="evenodd" d="M31.416 11.1445L34.3116 15.9746L37.2155 11.1445H31.416Z" fill="white"/>
<path fill-rule="evenodd" clip-rule="evenodd" d="M34.3109 5.87012L31.415 10.7004H37.215L34.3111 5.87012H34.3109Z" fill="white"/>
<path fill-rule="evenodd" clip-rule="evenodd" d="M8.97268 29.0139L7.63414 34.1672L6.2343 29.0139H5.34175L3.8719 34.1847L2.54201 29.0139H1.69336L3.39945 35.1208L4.2831 35.1121L5.75294 30.2038L7.17034 35.1121H8.06274L9.83008 29.0139H8.97268ZM15.0796 32.5311C15.0862 32.1211 14.9884 31.7161 14.7952 31.3544C14.6086 31.0104 14.3279 30.7266 13.9859 30.5363C13.6165 30.3332 13.2001 30.2306 12.7786 30.2389C12.3467 30.2304 11.92 30.3345 11.5405 30.541C11.1837 30.7403 10.8931 31.0399 10.705 31.4028C10.5066 31.7761 10.4075 32.2107 10.4075 32.7064C10.4076 33.2021 10.5096 33.6381 10.7137 34.0144C10.9066 34.379 11.1995 34.681 11.558 34.8849C11.9308 35.0928 12.3519 35.1984 12.7786 35.1912C13.3501 35.1912 13.8284 35.0468 14.2134 34.7581C14.5901 34.4815 14.8616 34.085 14.9834 33.6338H14.1259C14.0379 33.8951 13.8675 34.1207 13.6403 34.2769C13.4099 34.4374 13.1226 34.5176 12.7786 34.5175C12.3835 34.5269 11.9999 34.3844 11.7067 34.1194C11.4122 33.854 11.2503 33.4851 11.2212 33.0126H15.0534C15.0703 32.8528 15.079 32.6922 15.0794 32.5314L15.0796 32.5311ZM14.2572 32.3649H11.2299C11.2707 31.91 11.4325 31.5542 11.7155 31.2975C11.9959 31.0417 12.3641 30.9039 12.7436 30.9125C13.0086 30.9091 13.2707 30.9675 13.5092 31.0831C13.7356 31.1933 13.9255 31.3664 14.0561 31.5818C14.1951 31.8189 14.2648 32.0902 14.2573 32.3649H14.2572ZM16.9256 31.21V28.6377H16.1295V35.1121H16.9256V34.2284C17.0932 34.5185 17.3367 34.7575 17.6299 34.9196C17.9623 35.1056 18.3384 35.1993 18.7192 35.1908C19.128 35.1964 19.5301 35.087 19.8798 34.8751C20.2294 34.6631 20.5124 34.3572 20.6965 33.9922C20.8999 33.5913 21.0021 33.1467 20.994 32.6973C20.994 32.2073 20.8948 31.7772 20.6965 31.4068C20.5105 31.0496 20.2287 30.7512 19.8827 30.545C19.5301 30.3386 19.1277 30.2327 18.7191 30.2388C18.3427 30.2322 17.9713 30.3258 17.6429 30.51C17.3449 30.6742 17.097 30.9161 16.9255 31.2099L16.9256 31.21ZM20.1803 32.6973C20.1884 33.0299 20.1132 33.3593 19.9616 33.6554C19.8276 33.9142 19.6227 34.1297 19.371 34.2766C19.1223 34.4197 18.8399 34.4937 18.5529 34.4909C18.2689 34.493 17.9895 34.419 17.7437 34.2766C17.4913 34.1291 17.2852 33.9139 17.1487 33.6554C17.002 33.362 16.9256 33.0385 16.9256 32.7105C16.9256 32.3825 17.002 32.0589 17.1487 31.7656C17.2852 31.5071 17.4913 31.2919 17.7437 31.1444C17.9895 31.002 18.2689 30.928 18.5529 30.93C18.8393 30.9272 19.1214 30.9996 19.371 31.14C19.6223 31.2836 19.8272 31.4961 19.9616 31.7524C20.1129 32.044 20.1881 32.369 20.1803 32.6973ZM27.6171 30.7811C27.4101 30.2233 27.0279 29.7475 26.5278 29.425C26.0291 29.1043 25.4561 28.9439 24.8087 28.9438C24.2664 28.9377 23.7322 29.0751 23.26 29.3419C22.7965 29.6042 22.4137 29.9885 22.1533 30.453C21.8863 30.9452 21.7464 31.4963 21.7464 32.0563C21.7464 32.6163 21.8863 33.1674 22.1533 33.6596C22.4147 34.1223 22.7973 34.505 23.26 34.7664C23.7321 35.0333 24.2664 35.1706 24.8087 35.1645C25.3188 35.1711 25.8221 35.046 26.2698 34.8014C26.7001 34.566 27.0642 34.226 27.3284 33.8127C27.5957 33.3987 27.7578 32.9256 27.8009 32.4347V31.8224H24.5199V32.4698H26.9522C26.8879 33.0767 26.6634 33.5579 26.2786 33.9134C25.8938 34.269 25.4038 34.4469 24.8087 34.4471C24.406 34.4531 24.0089 34.352 23.6582 34.154C23.3159 33.9577 23.0367 33.6678 22.8533 33.3185C22.6578 32.9569 22.5601 32.537 22.5602 32.0586C22.5603 31.5803 22.6579 31.1589 22.8533 30.7944C23.0358 30.4432 23.3151 30.1518 23.6582 29.9544C24.009 29.7565 24.406 29.6554 24.8087 29.6613C25.202 29.6528 25.5899 29.7543 25.9285 29.9544C26.2501 30.1509 26.506 30.4387 26.6634 30.7811H27.6171ZM32.9279 30.7986C32.9279 30.2737 32.7485 29.845 32.3898 29.5125C32.0311 29.18 31.5076 29.0138 30.8193 29.0138H28.8506V35.1121H29.6468V32.5661H30.8192C31.5308 32.5661 32.0601 32.3984 32.4072 32.063C32.7542 31.7276 32.9279 31.3062 32.928 30.7987L32.9279 30.7986ZM30.8193 31.9098H29.647V29.6702H30.8193C31.6825 29.6702 32.1141 30.0464 32.1142 30.7988C32.1142 31.1547 32.0092 31.4288 31.7992 31.6212C31.5893 31.8137 31.2626 31.9099 30.8193 31.91V31.9098ZM33.899 29.0139V32.8636C33.899 33.371 33.9997 33.7983 34.2011 34.1454C34.3901 34.481 34.677 34.7511 35.0235 34.9196C35.3902 35.0868 35.7885 35.1734 36.1915 35.1734C36.5945 35.1734 36.9928 35.0868 37.3595 34.9196C37.7066 34.7504 37.9947 34.4806 38.1863 34.1454C38.3902 33.7984 38.4921 33.3711 38.4921 32.8635V29.0139H37.6961V32.8723C37.6961 33.4147 37.5634 33.8172 37.298 34.0797C37.0326 34.3421 36.6666 34.4734 36.2 34.4734C35.7275 34.4734 35.3586 34.3421 35.0932 34.0797C34.8278 33.8172 34.6951 33.4147 34.6952 32.8723V29.0139H33.8989L33.899 29.0139Z" fill="white"/>
</svg>
